<svg width="1239" height="173" viewBox="0 0 1239 173" fill="none" xmlns="http://www.w3.org/2000/svg">
<g clip-path="url(#clip0_219_57)">
<path d="M0 0H186.25V172.5H0V0Z" fill="black"/>
<path d="M812.5 36.875H834.375L854.375 68.125L861.25 78.75L871.25 94.375L880.625 108.75L881.25 36.875H902.5V145.625H880.625L871.875 131.875L865 121.25L845 90L838.125 79.375L834.375 73.75L833.75 145.625H812.5V36.875Z" fill="black"/>
<path d="M1059.38 35H1074.38L1086.25 38.125L1096.25 43.125L1102.5 48.125L1109.38 55L1115 63.75L1119.38 73.75L1121.25 81.875L1121.88 87.5V95.625L1120 106.875L1116.25 116.875L1111.25 125L1105.62 131.875L1100 136.875L1093.12 141.25L1085 145L1075 147.5L1070 148.125H1063.75L1051.88 146.25L1042.5 142.5L1034.38 137.5L1028.12 131.875L1022.5 125.625L1017.5 117.5L1013.75 108.125L1011.88 98.75V83.75L1013.75 75L1016.88 66.875L1021.25 58.75L1028.12 50.625L1033.75 45.625L1041.88 40.625L1050.62 36.875L1059.38 35ZM1060.62 55.625L1053.12 58.125L1047.5 61.875L1043.75 65L1039.38 71.25L1036.25 78.75L1035 84.375V98.125L1036.88 106.25L1041.25 114.375L1046.88 120.625L1052.5 124.375L1060 126.875L1064.38 127.5H1069.38L1076.25 126.25L1085 121.875L1091.88 115L1096.88 105L1098.75 95.625V86.875L1096.88 78.125L1093.75 70.625L1089.38 65L1083.75 60L1077.5 56.875L1072.5 55.625H1060.62Z" fill="black"/>
<path d="M32.5 43.125L35.625 45L43.75 52.5L50.625 58.125L59.375 66.25L66.25 71.875L75 80L81.875 85.625L90.625 93.75L92.5 94.375L101.25 86.25L106.25 81.875L115 74.375L122.5 67.5L129.375 61.875L138.125 53.75L145 48.125L150.625 43.125H151.25V137.5H130.625L130 90L121.25 97.5L113.75 104.375L106.875 110L98.125 118.125L93.125 122.5L91.25 123.125L88.125 120L80.625 113.125L75.625 108.75L66.875 101.25L59.375 94.375L54.375 90L53.75 137.5H32.5V43.125Z" fill="white"/>
<path d="M926.25 36.875H964.375L973.125 38.75L979.375 41.25L985.625 46.25L988.75 50.625L990.625 55.625L991.25 59.375V69.375L988.75 77.5L983.75 84.375L978.75 88.125L986.875 90.625L992.5 94.375L997.5 100L1000 105.625L1001.25 113.75L1000.62 122.5L997.5 130.625L993.75 135.625L988.75 140L981.25 143.75L972.5 145.625H926.25V36.875ZM948.125 53.125L947.5 53.75V80.625H959.375L965.625 78.125L969.375 73.75L970.625 70.625V63.125L968.125 58.125L963.75 55L960 53.75L953.75 53.125H948.125ZM947.5 99.375V128.75L948.125 129.375H961.25L968.125 128.125L973.75 125.625L977.5 121.25L978.75 116.875V111.875L976.25 105.625L971.875 101.875L963.75 99.375H947.5Z" fill="black"/>
<path d="M249.375 36.875H293.125L303.75 39.375L311.875 43.75L317.5 49.375L321.875 58.125L323.125 62.5V76.875L320.625 85L316.875 91.25L311.875 96.25L305.625 100L301.25 101.875H299.375L303.75 107.5L312.5 118.125L323.75 131.875L332.5 142.5L334.375 145.625H307.5L301.25 138.125L293.75 128.125L285 116.875L277.5 106.875L276.875 105H271.25V145.625H249.375V36.875ZM271.25 53.75V86.875H285L291.875 85L297.5 81.25L300 76.875L301.25 72.5V68.125L299.375 62.5L295 57.5L290 55L283.75 53.75H271.25Z" fill="black"/>
<path d="M648.125 36.875H669.375V81.875H710V37.5L710.625 36.875H731.25L731.875 37.5V145.625H710V100.625H669.375V145.625H648.125V36.875Z" fill="black"/>
<path d="M1136.25 36.875H1161.88L1166.88 44.375L1180.62 64.375L1183.12 68.125H1184.38L1190.62 58.75L1204.38 38.75L1205.62 36.875H1231.25L1228.75 41.25L1221.88 51.25L1211.88 65.625L1203.75 77.5L1197.5 86.875L1200 91.25L1208.12 102.5L1216.88 115L1231.88 136.25L1238.12 145V145.625H1211.25L1204.38 135.625L1186.88 110.625L1184.38 106.875L1182.5 107.5L1174.38 119.375L1164.38 133.75L1156.25 145.625H1129.38L1133.75 138.75L1163.75 96.25L1170 87.5L1166.88 81.875L1160 72.5L1155 65L1141.25 45L1136.25 37.5V36.875Z" fill="black"/>
<path d="M466.875 36.875H487.5L510 93.125L521.875 122.5L530.625 144.375V145.625H507.5L498.75 122.5L497.5 121.25L455.625 121.875L446.875 145.625H423.75L425.625 139.375L437.5 110L457.5 60L466.25 38.75L466.875 36.875ZM476.875 66.25L470 83.125L463.125 101.25V101.875L490.625 102.5L491.25 101.25L479.375 70.625L477.5 66.25H476.875Z" fill="black"/>
<path d="M587.5 35H604.375L617.5 38.125L625.625 41.875L630.625 45L625 56.875L621.875 63.125L618.75 61.875L612.5 58.75L605.625 56.875L600 56.25H594.375L584.375 58.125L574.375 63.125L569.375 67.5L565.625 71.875L561.875 79.375L560 88.125V94.375L561.25 101.875L566.25 111.875L570.625 116.875L576.875 121.25L583.75 124.375L591.875 126.25H603.125L613.125 123.75L619.375 120.625L621.875 120L628.125 131.875L630.625 137.5L625 141.25L616.25 145L605.625 147.5L600 148.125H592.5L580.625 146.25L571.25 143.125L561.875 138.125L556.25 133.75L550.625 128.75L544.375 120.625L539.375 110.625L536.875 101.25L536.25 96.875V85.625L538.125 76.25L541.25 68.125L545 61.25L550 55L556.875 48.125L566.25 41.875L575 38.125L584.375 35.625L587.5 35Z" fill="black"/>
<path d="M349.375 36.875H410V55.625H370.625V81.875H408.125L408.75 82.5V100L408.125 100.625H370.625V126.875H410V145.625H349.375V36.875Z" fill="black"/>
<path d="M761.25 36.875H782.5V145.625H761.25V36.875Z" fill="black"/>
</g>
<defs>
<clipPath id="clip0_219_57">
<rect width="1238.13" height="172.5" fill="white"/>
</clipPath>
</defs>
</svg>
