<svg width="186" height="186" viewBox="0 0 186 186" fill="none" xmlns="http://www.w3.org/2000/svg">
<path d="M0 0H186V186H0V0Z" fill="#FEFEFE"/>
<path d="M34 46L37.125 47.875L45.25 55.375L52.125 61L60.875 69.125L67.75 74.75L76.5 82.875L83.375 88.5L92.125 96.625L94 97.25L102.75 89.125L107.75 84.75L116.5 77.25L124 70.375L130.875 64.75L139.625 56.625L146.5 51L152.125 46H152.75V140.375H132.125L131.5 92.875L122.75 100.375L115.25 107.25L108.375 112.875L99.625 121L94.625 125.375L92.75 126L89.625 122.875L82.125 116L77.125 111.625L68.375 104.125L60.875 97.25L55.875 92.875L55.25 140.375H34V46Z" fill="#090909"/>
</svg>
